<?xml version="1.0" standalone="no"?>
<!DOCTYPE svg PUBLIC "-//W3C//DTD SVG 20010904//EN"
 "http://www.w3.org/TR/2001/REC-SVG-20010904/DTD/svg10.dtd">
<svg version="1.0" xmlns="http://www.w3.org/2000/svg"
 width="320.000000pt" height="320.000000pt" viewBox="0 0 320.000000 320.000000"
 preserveAspectRatio="xMidYMid meet">
<metadata>
Created by potrace 1.14, written by Peter Selinger 2001-2017
</metadata>
<g transform="translate(0.000000,320.000000) scale(0.100000,-0.100000)"
fill="#000000" stroke="none">
<path d="M1270 2991 c-114 -71 -229 -205 -269 -315 -43 -116 -19 -248 63 -355
79 -102 149 -169 436 -420 379 -331 547 -597 535 -848 -7 -139 -56 -245 -156
-337 -194 -180 -474 -184 -627 -11 -123 139 -129 303 -16 419 163 168 445 65
459 -167 3 -57 -18 -139 -47 -179 -26 -37 -6 -37 53 0 153 98 198 298 108 488
-152 323 -605 362 -876 76 -108 -115 -166 -253 -166 -396 0 -126 16 -193 75
-311 158 -316 490 -482 863 -431 84 11 215 54 265 86 8 6 22 13 30 17 37 16
140 95 186 144 158 169 235 370 237 619 1 179 -22 282 -97 446 -94 203 -250
391 -566 684 -328 304 -430 424 -467 549 -22 76 -18 143 11 207 14 30 21 56
17 58 -4 3 -27 -8 -51 -23z"/>
</g>
</svg>
